<?xml version="1.0" encoding="utf-8"?>
<!-- Generator: Adobe Illustrator 25.4.1, SVG Export Plug-In . SVG Version: 6.00 Build 0)  -->
<svg version="1.1" id="Layer_1" xmlns="http://www.w3.org/2000/svg" xmlns:xlink="http://www.w3.org/1999/xlink" x="0px" y="0px"
	 viewBox="0 0 242 71" style="enable-background:new 0 0 242 71;" xml:space="preserve">
<style type="text/css">
	.st0{fill:url(#SVGID_1_);}
	.st1{fill:#4298BF;}
</style>
<g>
	<linearGradient id="SVGID_1_" gradientUnits="userSpaceOnUse" x1="7.1158" y1="34" x2="90.0749" y2="34">
		<stop  offset="0" style="stop-color:#00B092"/>
		<stop  offset="0.7559" style="stop-color:#4298BF"/>
	</linearGradient>
	<path class="st0" d="M90.07,41.21c0,1.41-0.15,2.79-0.42,4.11c-0.61,2.95-1.88,5.67-3.63,7.99c-3.38,4.48-8.6,7.49-14.53,7.93
		v-8.03c4.58-0.57,8.36-3.69,9.87-7.9c0.46-1.28,0.72-2.66,0.72-4.1c0-1.36-0.22-2.67-0.64-3.89c-0.3-0.87-0.69-1.7-1.17-2.48
		c-1.76-2.84-4.66-4.89-8.06-5.52c-0.24-0.05-0.48-0.08-0.73-0.11c-0.03,0-0.05-0.01-0.08-0.01c-0.32-2.99-1.54-5.71-3.39-7.88
		c-0.03-0.04-0.06-0.07-0.1-0.11c-0.66-0.76-1.4-1.46-2.21-2.07c-2.44-1.85-5.49-2.95-8.78-2.95c-4.44,0-8.42,1.99-11.09,5.13
		c-1.65,1.94-2.8,4.32-3.26,6.94c0.29,0.35,0.57,0.7,0.84,1.06c1.71,2.33,2.94,5.05,3.51,8c0.25,1.25,0.37,2.55,0.37,3.87
		c0,0.16,0,0.31-0.01,0.47c-0.03,1.25-0.17,2.46-0.42,3.64H25.69v-7.99h12.97c-0.96-2.82-2.93-5.18-5.48-6.63
		c-1.14-0.65-2.4-1.12-3.74-1.37c-0.72-0.14-1.47-0.21-2.23-0.21c-0.51,0-1.02,0.03-1.51,0.09c-0.24,0.03-0.48,0.07-0.71,0.11
		c-4.32,0.81-7.84,3.91-9.23,8c-0.41,1.22-0.64,2.53-0.64,3.89c0,1.44,0.25,2.82,0.72,4.1c1.51,4.2,5.29,7.33,9.86,7.9
		c0.5,0.06,1,0.09,1.51,0.09h38.5v7.99h-38.5c-0.51,0-1.02-0.02-1.51-0.06c-5.93-0.44-11.14-3.46-14.52-7.93
		c-1.76-2.32-3.02-5.04-3.63-7.99c-0.28-1.33-0.42-2.7-0.42-4.11c0-1.33,0.13-2.62,0.37-3.87c0.57-2.95,1.8-5.67,3.51-8
		c3.1-4.23,7.83-7.2,13.25-8c0.47-0.07,0.95-0.12,1.44-0.16c0.5-0.04,1-0.06,1.51-0.06c1,0,1.99,0.07,2.95,0.22
		c1.52,0.22,2.99,0.62,4.38,1.16c0.14-0.39,0.29-0.78,0.45-1.16C38.57,12.74,47.04,6.7,56.93,6.7c3.1,0,6.07,0.59,8.78,1.68
		c2.09,0.83,4.03,1.95,5.77,3.31c3.22,2.5,5.78,5.82,7.38,9.64c0.31,0.74,0.58,1.5,0.81,2.27c2.57,1.42,4.79,3.38,6.52,5.73
		c1.71,2.33,2.94,5.05,3.51,8C89.95,38.59,90.07,39.88,90.07,41.21z"/>
	<g>
		<path class="st1" d="M102.36,44.73h7.92v3.54H98.66v-18.8h11.49v3.54h-7.79v4h7.12v3.49h-7.12V44.73z"/>
		<path class="st1" d="M122.61,29.47h3.46v18.8h-3.46v-1.58c-1.02,1.31-2.47,1.96-4.35,1.96c-1.81,0-3.35-0.68-4.63-2.05
			c-1.28-1.37-1.92-3.05-1.92-5.04c0-1.99,0.64-3.67,1.92-5.04c1.28-1.37,2.82-2.05,4.63-2.05c1.88,0,3.33,0.65,4.35,1.96V29.47z
			 M116.23,44.29c0.71,0.71,1.6,1.06,2.67,1.06c1.07,0,1.96-0.35,2.66-1.06c0.7-0.71,1.05-1.62,1.05-2.73
			c0-1.11-0.35-2.02-1.05-2.73c-0.7-0.71-1.58-1.06-2.66-1.06c-1.07,0-1.97,0.35-2.67,1.06c-0.71,0.71-1.06,1.62-1.06,2.73
			C115.17,42.67,115.53,43.58,116.23,44.29z"/>
		<path class="st1" d="M139.53,34.85h3.38v12.78c0,2.08-0.68,3.66-2.05,4.75c-1.37,1.09-3.02,1.64-4.96,1.64
			c-1.45,0-2.73-0.28-3.83-0.83c-1.1-0.56-1.95-1.37-2.54-2.44l2.95-1.69c0.68,1.25,1.85,1.88,3.52,1.88c1.09,0,1.95-0.29,2.58-0.86
			c0.63-0.57,0.94-1.39,0.94-2.44v-1.45c-1.02,1.36-2.45,2.04-4.3,2.04c-1.9,0-3.49-0.67-4.77-2c-1.28-1.33-1.92-2.96-1.92-4.87
			c0-1.9,0.64-3.52,1.93-4.86c1.29-1.34,2.87-2.01,4.75-2.01c1.84,0,3.28,0.68,4.3,2.04V34.85z M133.07,43.99
			c0.71,0.69,1.61,1.03,2.7,1.03c1.09,0,1.99-0.34,2.7-1.03c0.71-0.69,1.06-1.57,1.06-2.65c0-1.06-0.35-1.93-1.06-2.62
			c-0.71-0.69-1.61-1.03-2.7-1.03c-1.09,0-1.99,0.35-2.7,1.03c-0.71,0.69-1.06,1.56-1.06,2.62
			C132.01,42.42,132.37,43.3,133.07,43.99z"/>
		<path class="st1" d="M148.99,42.98c0.47,1.68,1.73,2.52,3.79,2.52c1.32,0,2.33-0.45,3.01-1.34l2.79,1.61
			c-1.33,1.92-3.28,2.87-5.85,2.87c-2.22,0-4-0.67-5.34-2.01s-2.01-3.03-2.01-5.08c0-2.02,0.66-3.71,1.99-5.06
			c1.32-1.35,3.03-2.03,5.1-2.03c1.97,0,3.59,0.68,4.87,2.04c1.28,1.36,1.92,3.04,1.92,5.05c0,0.45-0.05,0.92-0.13,1.42H148.99z
			 M148.93,40.3h6.85c-0.2-0.91-0.6-1.59-1.22-2.04c-0.62-0.45-1.32-0.67-2.11-0.67c-0.93,0-1.7,0.24-2.31,0.71
			C149.53,38.77,149.13,39.44,148.93,40.3z"/>
		<path class="st1" d="M170.74,48.65c-2.83,0-5.17-0.94-7.01-2.82c-1.84-1.88-2.77-4.2-2.77-6.96c0-2.78,0.92-5.1,2.77-6.97
			c1.84-1.87,4.18-2.81,7.01-2.81c1.7,0,3.27,0.4,4.71,1.2c1.44,0.8,2.56,1.88,3.37,3.24l-3.2,1.85c-0.47-0.84-1.13-1.5-1.99-1.97
			c-0.86-0.47-1.83-0.71-2.9-0.71c-1.83,0-3.3,0.57-4.42,1.72c-1.12,1.15-1.68,2.63-1.68,4.46c0,1.81,0.56,3.29,1.68,4.43
			c1.12,1.15,2.59,1.72,4.42,1.72c1.07,0,2.05-0.24,2.91-0.71c0.87-0.47,1.53-1.12,1.97-1.95l3.2,1.85
			c-0.81,1.36-1.92,2.44-3.36,3.24C174.03,48.25,172.46,48.65,170.74,48.65z"/>
		<path class="st1" d="M181.16,48.27V28.67h3.46v19.61H181.16z"/>
		<path class="st1" d="M199.23,46.59c-1.38,1.37-3.06,2.05-5.05,2.05c-1.99,0-3.67-0.68-5.04-2.05c-1.37-1.37-2.05-3.05-2.05-5.04
			c0-1.99,0.68-3.67,2.05-5.04c1.37-1.37,3.05-2.05,5.04-2.05c1.99,0,3.67,0.68,5.05,2.05c1.38,1.37,2.07,3.05,2.07,5.04
			C201.3,43.55,200.61,45.23,199.23,46.59z M191.59,44.22c0.69,0.7,1.55,1.05,2.59,1.05c1.04,0,1.91-0.35,2.61-1.05
			s1.05-1.58,1.05-2.66s-0.35-1.96-1.05-2.66s-1.57-1.05-2.61-1.05c-1.04,0-1.9,0.35-2.59,1.05c-0.69,0.7-1.03,1.58-1.03,2.66
			S190.9,43.52,191.59,44.22z"/>
		<path class="st1" d="M212.61,34.85h3.46v13.43h-3.46v-1.5c-0.84,1.25-2.18,1.88-4,1.88c-1.47,0-2.68-0.49-3.64-1.48
			c-0.96-0.98-1.44-2.35-1.44-4.08v-8.24h3.46v7.82c0,0.9,0.24,1.58,0.73,2.05c0.48,0.47,1.13,0.71,1.93,0.71
			c0.9,0,1.61-0.28,2.15-0.83c0.54-0.55,0.81-1.39,0.81-2.5V34.85z"/>
		<path class="st1" d="M229.42,29.47h3.46v18.8h-3.46v-1.58c-1.02,1.31-2.47,1.96-4.35,1.96c-1.81,0-3.35-0.68-4.63-2.05
			c-1.28-1.37-1.92-3.05-1.92-5.04c0-1.99,0.64-3.67,1.92-5.04c1.28-1.37,2.82-2.05,4.63-2.05c1.88,0,3.33,0.65,4.35,1.96V29.47z
			 M223.04,44.29c0.71,0.71,1.6,1.06,2.67,1.06c1.07,0,1.96-0.35,2.66-1.06c0.7-0.71,1.05-1.62,1.05-2.73
			c0-1.11-0.35-2.02-1.05-2.73c-0.7-0.71-1.58-1.06-2.66-1.06c-1.07,0-1.97,0.35-2.67,1.06c-0.71,0.71-1.06,1.62-1.06,2.73
			C221.98,42.67,222.33,43.58,223.04,44.29z"/>
	</g>
</g>
</svg>
