<svg xmlns="http://www.w3.org/2000/svg" xmlns:xlink="http://www.w3.org/1999/xlink" width="865" height="768" viewBox="0 0 865 768"><defs><clipPath id="a"><rect width="865" height="768" fill="#ff4f28"/></clipPath></defs><g clip-path="url(#a)"><path d="M712.035,308.4a187.448,187.448,0,0,1-3.626,36.782c-15.778,78.284-79.332,136.288-155.92,142.306v-71.73c50.743-6.611,89.3-50.732,90.853-103.966s-34.359-99.713-84.623-109.521c-2.057-.405-4.14-.742-6.23-1-.237-.034-.468-.076-.7-.1a132.172,132.172,0,0,0-29.061-70.425c-.27-.336-.541-.687-.824-1.009-31.634-37.934-81.4-53.523-127.882-40.056s-81.365,53.588-89.641,103.086c2.5,3.09,4.912,6.248,7.173,9.5a182.182,182.182,0,0,1,30.123,71.51,187.586,187.586,0,0,1,3.211,34.619c0,1.414,0,2.808-.053,4.2a185.608,185.608,0,0,1-3.573,32.58h-181.8V273.778h111.3a107.448,107.448,0,0,0-47.046-59.254,100.3,100.3,0,0,0-64.253-13.258c-2.05.282-4.107.6-6.125,1-52.719,10.243-89.26,60.632-84.3,116.244s49.79,98.128,103.419,98.081H502.918V488H172.453q-6.553,0-12.994-.5C71.9,480.585,3.314,406.264.149,314.877S60.254,144.216,147.1,130.751c4.074-.632,8.195-1.119,12.355-1.435q6.428-.508,12.994-.5a166.815,166.815,0,0,1,63.013,12.375c1.135-3.531,2.414-7,3.8-10.425C269.954,53.974,342.686,0,427.529,0,509.864.031,584.111,51.6,615.78,130.751a207.92,207.92,0,0,1,6.969,20.3C677.861,182.6,712.087,242.911,712.035,308.4Z" transform="translate(-449.035 463)" fill="#fff" opacity="0.13"/><path d="M1619.035,701.492a426.5,426.5,0,0,1-8.245,83.663c-35.878,178.063-180.39,310-354.543,323.689V945.688c115.384-15.037,203.057-115.4,206.589-236.481S1384.708,482.4,1270.414,460.092c-4.677-.921-9.415-1.687-14.167-2.28-.54-.078-1.064-.172-1.589-.219A300.688,300.688,0,0,0,1188.577,297.4c-.615-.765-1.229-1.562-1.874-2.3C1114.772,208.824,1001.6,173.365,895.914,204S710.9,325.889,692.082,438.478c5.682,7.028,11.169,14.212,16.31,21.615a414.46,414.46,0,0,1,68.495,162.657,426.806,426.806,0,0,1,7.3,78.743c0,3.217,0,6.388-.12,9.558a422.309,422.309,0,0,1-8.125,74.105h-413.4V622.733H615.627c-18.643-57.041-56.7-104.989-106.977-134.779a228.014,228.014,0,0,0-146.1-30.157c-4.662.64-9.34,1.359-13.927,2.28-119.876,23.3-202.967,137.913-191.687,264.407s113.217,223.2,235.161,223.094h751.435V1110H392.093q-14.9,0-29.548-1.14C163.455,1093.134,7.49,924.084.294,716.216S136.966,328.032,334.452,297.4c9.265-1.437,18.634-2.546,28.094-3.264q14.616-1.156,29.548-1.14a379.213,379.213,0,0,1,143.285,28.148c2.58-8.032,5.488-15.924,8.636-23.712C613.8,122.769,779.181,0,972.1,0c187.219.071,356.048,117.369,428.06,297.4a473.025,473.025,0,0,1,15.845,46.181C1541.327,415.33,1619.152,552.524,1619.035,701.492Z" transform="translate(-1019.035 79)" fill="#fff" opacity="0.13"/><g transform="translate(444 -184)" fill="none" stroke="#fff" stroke-width="68" opacity="0.13"><circle cx="210.5" cy="210.5" r="210.5" stroke="none"/><circle cx="210.5" cy="210.5" r="176.5" fill="none"/></g><rect width="109" height="71" transform="translate(600 26)" fill="#fff" opacity="0.13"/></g></svg>