<svg xmlns="http://www.w3.org/2000/svg" width="210.552" height="78.999" viewBox="0 0 210.552 78.999">
  <g id="Group_5" data-name="Group 5" transform="translate(-218.647 -708.054)">
    <path id="Path_1" data-name="Path 1" d="M253.926,710.487a26.726,26.726,0,0,1-27.447,45.868c-.395-.236-.79-.483-1.162-.737a26.728,26.728,0,0,0,27.413-45.807q.605.32,1.2.676" transform="translate(5.175 1.363)" fill="#06519c"/>
    <path id="Path_2" data-name="Path 2" d="M259.1,711.851q.6.355,1.163.736a26.728,26.728,0,0,0-27.413,45.808q-.6-.322-1.2-.676A26.727,26.727,0,0,1,259.1,711.851" transform="translate(0)" fill="#06519c"/>
    <path id="Path_3" data-name="Path 3" d="M240.163,737.064q-2.879-2.291-5.608-4.761a26.167,26.167,0,0,0,3.158,5.416,21.845,21.845,0,0,0,2.445-.658" transform="translate(12.342 18.813)" fill="#06519c"/>
    <path id="Path_4" data-name="Path 4" d="M233.945,717.85a58.566,58.566,0,0,0-.991,12.786,39.841,39.841,0,0,0,1.87,11.775q3.816,3.612,7.964,6.864a21.939,21.939,0,0,0,11.468-10.685,22.331,22.331,0,0,0,1.387-3.569c-1.945-6.92-5.141-13.9-10.214-19.091a31.19,31.19,0,0,0-11.484,1.921" transform="translate(11.079 6.103)" fill="#06519c"/>
    <path id="Path_5" data-name="Path 5" d="M249.959,732.536a22.045,22.045,0,0,0-3.091-15.441,28.565,28.565,0,0,0-5.9-1.116,45.135,45.135,0,0,1,8.993,16.556" transform="translate(17.317 6.149)" fill="#06519c"/>
    <path id="Path_6" data-name="Path 6" d="M237.655,739.6a42.751,42.751,0,0,1-1.3-10.009,61.608,61.608,0,0,1,.863-12.281,37.625,37.625,0,0,0-7.144,3.948q-1.6,1.121-3.121,2.346a29.952,29.952,0,0,0,7.149,12.324q1.737,1.878,3.553,3.674" transform="translate(6.44 7.177)" fill="#06519c"/>
    <path id="Path_7" data-name="Path 7" d="M227.687,713.726a25.584,25.584,0,0,0-1.23,7.44,24.665,24.665,0,0,0,.553,5.558q1.34-1.06,2.74-2.036a38.617,38.617,0,0,1,8.146-4.383,28.535,28.535,0,0,1,2.407-6.912,47.348,47.348,0,0,0-8.223-1.823,21.99,21.99,0,0,0-4.39,2.154" transform="translate(6.056 2.728)" fill="#06519c"/>
    <path id="Path_8" data-name="Path 8" d="M238.535,711a21.975,21.975,0,0,0-7.341.338,44.927,44.927,0,0,1,6.041,1.528c.263-.433.537-.857.834-1.262.149-.207.305-.407.466-.6" transform="translate(9.734 2.158)" fill="#06519c"/>
    <path id="Path_9" data-name="Path 9" d="M233.677,718.832a32.567,32.567,0,0,1,9.847-1.738q-.549-.466-1.132-.894a26.226,26.226,0,0,0-6.515-3.375,26.286,26.286,0,0,0-2.2,6.007" transform="translate(11.661 3.702)" fill="#06519c"/>
    <path id="Path_10" data-name="Path 10" d="M242.261,738.9q-2.682-2.546-5.194-5.264a31.461,31.461,0,0,1-7.281-12.3,35.282,35.282,0,0,0-5.558,5.883,22.568,22.568,0,0,0-2.271,3.816,22,22,0,0,0,24.176,15.441,28.74,28.74,0,0,1-3.871-7.576" transform="translate(2.567 10.304)" fill="#06519c"/>
    <path id="Path_11" data-name="Path 11" d="M229.972,713.421a22.027,22.027,0,0,0-8.073,21.93,25.069,25.069,0,0,1,1.738-2.722,37.191,37.191,0,0,1,6.2-6.469,25.9,25.9,0,0,1-.579-8.817,27.179,27.179,0,0,1,.712-3.921" transform="translate(2.16 4.164)" fill="#06519c"/>
    <path id="Path_12" data-name="Path 12" d="M236.811,711.054a13.17,13.17,0,0,0-.9,1.107q-.338.463-.641.954a27.373,27.373,0,0,1,6.62,3.465,20.13,20.13,0,0,1,2.257,1.911,30.536,30.536,0,0,1,6.053.847,22.087,22.087,0,0,0-13.383-8.282" transform="translate(12.893 2.328)" fill="#06519c"/>
    <path id="Path_13" data-name="Path 13" d="M388.172,749.932a1.974,1.974,0,0,0-.242-.921,1.808,1.808,0,0,0-.554-.591,2.16,2.16,0,0,0-.742-.316,3.593,3.593,0,0,0-.8-.092,4.4,4.4,0,0,0-.676.059,2.192,2.192,0,0,0-.7.238,1.562,1.562,0,0,0-.553.5,1.473,1.473,0,0,0-.225.862,1.166,1.166,0,0,0,.1.508,1.054,1.054,0,0,0,.263.341,1.182,1.182,0,0,0,.354.217,2.941,2.941,0,0,0,.408.132l2.7.618a3.849,3.849,0,0,1,.855.3,2.261,2.261,0,0,1,1.124,1.236,2.69,2.69,0,0,1,.164.986,2.565,2.565,0,0,1-.35,1.394,2.6,2.6,0,0,1-.893.875,3.818,3.818,0,0,1-1.2.453,6.656,6.656,0,0,1-2.382.046,3.969,3.969,0,0,1-.8-.224,2.609,2.609,0,0,1-.554-.295,4.677,4.677,0,0,1-.375-.3,2.6,2.6,0,0,1-.782-1.138,4.289,4.289,0,0,1-.178-1.255h1.2a2.143,2.143,0,0,0,.236,1.063,2,2,0,0,0,.611.679,2.452,2.452,0,0,0,.837.362,4.152,4.152,0,0,0,.921.105,5.613,5.613,0,0,0,.776-.061,2.877,2.877,0,0,0,.809-.229,1.754,1.754,0,0,0,.63-.479,1.251,1.251,0,0,0,.255-.822,1.745,1.745,0,0,0-.1-.625,1.041,1.041,0,0,0-.329-.441,2.175,2.175,0,0,0-.618-.324c-.263-.091-.58-.187-.967-.281l-1.932-.448a4.429,4.429,0,0,1-.579-.178,2.343,2.343,0,0,1-.658-.375,2.226,2.226,0,0,1-.545-.65,2.037,2.037,0,0,1-.23-1.02,3.258,3.258,0,0,1,.184-1.081,2.533,2.533,0,0,1,.579-.931,2.877,2.877,0,0,1,1.012-.658,3.957,3.957,0,0,1,1.474-.25,4.891,4.891,0,0,1,1.958.324,2.88,2.88,0,0,1,1.1.789,2.39,2.39,0,0,1,.487.987,6.462,6.462,0,0,1,.138.913Zm-14.584-2.763h1.236v9.444H373.39l-4.8-7.632h-.025v7.632h-1.238v-9.444h1.513l4.721,7.632h.026Zm-14.738,4.721a5.034,5.034,0,0,0-.222-1.533,3.586,3.586,0,0,0-.658-1.216,3.036,3.036,0,0,0-1.038-.8,3.422,3.422,0,0,0-2.755,0,3.041,3.041,0,0,0-1.032.8,3.554,3.554,0,0,0-.658,1.216,5.359,5.359,0,0,0,0,3.065,3.561,3.561,0,0,0,.658,1.217,3.042,3.042,0,0,0,1.032.8,3.421,3.421,0,0,0,2.756,0,3.032,3.032,0,0,0,1.038-.8,3.59,3.59,0,0,0,.658-1.217,5.034,5.034,0,0,0,.216-1.527Zm1.316,0a6.281,6.281,0,0,1-.1,1.078,5.789,5.789,0,0,1-.316,1.119,5.1,5.1,0,0,1-.566,1.053,3.883,3.883,0,0,1-.862.888,4.024,4.024,0,0,1-1.2.613,5.625,5.625,0,0,1-3.129,0,4.025,4.025,0,0,1-1.2-.613,3.925,3.925,0,0,1-.863-.888,5.094,5.094,0,0,1-.564-1.053,5.776,5.776,0,0,1-.316-1.119,5.988,5.988,0,0,1,0-2.155,5.775,5.775,0,0,1,.316-1.119,5.1,5.1,0,0,1,.565-1.053,3.925,3.925,0,0,1,.863-.888,4.03,4.03,0,0,1,1.2-.613,5.581,5.581,0,0,1,3.129,0,4.03,4.03,0,0,1,1.2.613,3.883,3.883,0,0,1,.862.888,5.1,5.1,0,0,1,.566,1.053,5.791,5.791,0,0,1,.316,1.118,6.284,6.284,0,0,1,.091,1.083Zm-16.558,4.722H342.33v-9.444h1.276Zm-15.986-9.442h7.668V748.3H332.1v8.313H330.82V748.3h-3.2Zm-6.865,0v6.13a4.057,4.057,0,0,1-.23,1.373,3.123,3.123,0,0,1-.7,1.138,3.271,3.271,0,0,1-1.184.769,4.6,4.6,0,0,1-1.691.283,4.322,4.322,0,0,1-1.637-.283,3.152,3.152,0,0,1-1.132-.757,3.015,3.015,0,0,1-.65-1.083,3.879,3.879,0,0,1-.212-1.27v-6.3H314.6v5.945a3.318,3.318,0,0,0,.209,1.275,2.187,2.187,0,0,0,.553.8,1.94,1.94,0,0,0,.768.421,3.28,3.28,0,0,0,.863.118,3.472,3.472,0,0,0,.88-.118,2.13,2.13,0,0,0,.8-.408,2.086,2.086,0,0,0,.578-.789,3.108,3.108,0,0,0,.225-1.275v-5.972Zm-19.162,8.313h4.787v1.132h-6.062V747.17h1.275Zm-9.765-3.587a5.087,5.087,0,0,0-.222-1.533,3.587,3.587,0,0,0-.658-1.216,3.036,3.036,0,0,0-1.038-.8,3.422,3.422,0,0,0-2.756,0,3.042,3.042,0,0,0-1.032.8,3.554,3.554,0,0,0-.658,1.216,5.4,5.4,0,0,0,0,3.065,3.562,3.562,0,0,0,.658,1.217,3.045,3.045,0,0,0,1.032.8,3.422,3.422,0,0,0,2.756,0,3.035,3.035,0,0,0,1.038-.8,3.591,3.591,0,0,0,.658-1.217A5.087,5.087,0,0,0,291.828,751.9Zm1.316,0a6.276,6.276,0,0,1-.1,1.078,5.768,5.768,0,0,1-.316,1.118,5.171,5.171,0,0,1-.565,1.053,3.93,3.93,0,0,1-.863.888,4.025,4.025,0,0,1-1.2.613,5.623,5.623,0,0,1-3.129,0,4.025,4.025,0,0,1-1.2-.613,3.892,3.892,0,0,1-.863-.888,5.173,5.173,0,0,1-.565-1.053,5.792,5.792,0,0,1-.316-1.118,6,6,0,0,1,0-2.156,5.786,5.786,0,0,1,.316-1.118,5.176,5.176,0,0,1,.565-1.053,3.888,3.888,0,0,1,.863-.888,4.032,4.032,0,0,1,1.2-.613,5.58,5.58,0,0,1,3.129,0,4.033,4.033,0,0,1,1.2.613,3.928,3.928,0,0,1,.863.888,5.18,5.18,0,0,1,.565,1.053,5.768,5.768,0,0,1,.316,1.118,6.291,6.291,0,0,1,.1,1.078Zm-17.453-1.961a1.974,1.974,0,0,0-.243-.921,1.785,1.785,0,0,0-.553-.591,2.174,2.174,0,0,0-.742-.316,3.6,3.6,0,0,0-.8-.092,4.4,4.4,0,0,0-.678.059,2.216,2.216,0,0,0-.7.238,1.592,1.592,0,0,0-.553.5,1.485,1.485,0,0,0-.224.862,1.166,1.166,0,0,0,.1.508,1.077,1.077,0,0,0,.255.341,1.193,1.193,0,0,0,.355.217,2.864,2.864,0,0,0,.408.132l2.7.618a3.869,3.869,0,0,1,.855.3,2.319,2.319,0,0,1,.676.507,2.293,2.293,0,0,1,.446.73,2.686,2.686,0,0,1,.166.986,2.565,2.565,0,0,1-.349,1.394,2.622,2.622,0,0,1-.895.875,3.8,3.8,0,0,1-1.195.453,6.287,6.287,0,0,1-1.257.132,6.189,6.189,0,0,1-1.124-.086,4.012,4.012,0,0,1-.8-.223,2.6,2.6,0,0,1-.553-.295,4.394,4.394,0,0,1-.375-.3,2.617,2.617,0,0,1-.79-1.138,4.35,4.35,0,0,1-.178-1.255h1.2a2.162,2.162,0,0,0,.235,1.063,1.983,1.983,0,0,0,.613.679,2.427,2.427,0,0,0,.834.362,4.166,4.166,0,0,0,.921.105,5.586,5.586,0,0,0,.774-.061,2.876,2.876,0,0,0,.809-.229,1.759,1.759,0,0,0,.632-.479,1.251,1.251,0,0,0,.255-.822,1.711,1.711,0,0,0-.1-.625,1.027,1.027,0,0,0-.329-.441,2.129,2.129,0,0,0-.619-.324c-.263-.091-.58-.187-.966-.282l-1.934-.447a4.527,4.527,0,0,1-.579-.178,2.317,2.317,0,0,1-.658-.375,2.2,2.2,0,0,1-.545-.65,2.018,2.018,0,0,1-.23-1.02,3.212,3.212,0,0,1,.184-1.08,2.513,2.513,0,0,1,.579-.932,2.878,2.878,0,0,1,1.012-.658,3.948,3.948,0,0,1,1.473-.25,4.9,4.9,0,0,1,1.961.324,2.876,2.876,0,0,1,1.1.79,2.369,2.369,0,0,1,.487.987,6.477,6.477,0,0,1,.138.913Z" transform="translate(39.56 30.151)" fill="#06519c"/>
    <path id="Path_14" data-name="Path 14" d="M406.853,749.153a13.616,13.616,0,0,1-.372,2.141,14,14,0,0,1-.995,2.7,17.475,17.475,0,0,1-1.769,2.887,11.755,11.755,0,0,1-2.732,2.607,14.309,14.309,0,0,1-3.912,1.863,17.7,17.7,0,0,1-5.306.715,16.185,16.185,0,0,1-7.632-1.579,12.72,12.72,0,0,1-4.656-4.035,15.369,15.369,0,0,1-2.328-5.339,24.94,24.94,0,0,1-.658-5.494,28.542,28.542,0,0,1,.9-7.357,15.672,15.672,0,0,1,2.824-5.8,13.164,13.164,0,0,1,4.9-3.787,17.19,17.19,0,0,1,7.2-1.366,20.634,20.634,0,0,1,4.343.526,13.9,13.9,0,0,1,4.594,1.925,12.487,12.487,0,0,1,3.758,3.881,13.711,13.711,0,0,1,1.894,6.331h-8.817a9.051,9.051,0,0,0-.466-1.737,6.506,6.506,0,0,0-.962-1.738,5,5,0,0,0-1.579-1.336,4.783,4.783,0,0,0-2.328-.526h-.436a5.783,5.783,0,0,0-3.383.93,6.913,6.913,0,0,0-2.105,2.328,10.1,10.1,0,0,0-1.087,3.074,17.8,17.8,0,0,0-.309,3.228q0,1.363.124,3.2a11.771,11.771,0,0,0,.776,3.507,7.226,7.226,0,0,0,1.987,2.856,5.576,5.576,0,0,0,3.816,1.184,5.284,5.284,0,0,0,2.8-.684,6.183,6.183,0,0,0,1.8-1.615,6.593,6.593,0,0,0,.995-1.925,5.633,5.633,0,0,0,.309-1.55Zm-34.58,2.358a14.609,14.609,0,0,1-2.453,5,13.859,13.859,0,0,1-7.764,5.03,18.523,18.523,0,0,1-4.315.526,22.541,22.541,0,0,1-6.487-.9,12.659,12.659,0,0,1-5.215-3.012,14.455,14.455,0,0,1-3.475-5.586A25.08,25.08,0,0,1,341.29,744q0-.993.154-2.607a18.311,18.311,0,0,1,.713-3.477,18.92,18.92,0,0,1,1.615-3.756,12.559,12.559,0,0,1,2.825-3.421,14.221,14.221,0,0,1,4.342-2.483,17.694,17.694,0,0,1,6.176-.962,20.429,20.429,0,0,1,5.153.715,12.286,12.286,0,0,1,5.029,2.731,15.24,15.24,0,0,1,3.816,5.557,23.468,23.468,0,0,1,1.521,9.188v1.553H349.987a21.019,21.019,0,0,0,.311,2.3,7.973,7.973,0,0,0,1.025,2.671,6.368,6.368,0,0,0,2.3,2.2,8.093,8.093,0,0,0,4.129.9,7.076,7.076,0,0,0,3.445-.9,4.249,4.249,0,0,0,2.141-2.7Zm-8.567-10.118a9.187,9.187,0,0,0-.869-3.323,7.052,7.052,0,0,0-1.615-2.142,5.6,5.6,0,0,0-2.049-1.147,7.37,7.37,0,0,0-2.174-.342,6.053,6.053,0,0,0-4.749,1.831,8.976,8.976,0,0,0-2.017,5.123Zm-30.731-13.225h5.4v6.208h-5.4v17.943a10.412,10.412,0,0,0,.062,1.241,1.273,1.273,0,0,0,.4.807,2.331,2.331,0,0,0,1.087.466,10.429,10.429,0,0,0,2.049.156q.434,0,.868-.031c.291-.02.6-.051.932-.092v6.58c-.7.042-1.387.072-2.049.095s-1.345.03-2.048.03h-1.119a16.011,16.011,0,0,1-4.532-.526,6.563,6.563,0,0,1-2.7-1.458,4.7,4.7,0,0,1-1.305-2.237,11.526,11.526,0,0,1-.341-2.917V734.377H319.81v-6.208h4.474v-8.939h8.685ZM314.911,761.2h-8.685V719.229h8.685Zm-15.086-9.684a14.636,14.636,0,0,1-2.453,5,13.856,13.856,0,0,1-7.764,5.029,18.5,18.5,0,0,1-4.314.527,22.538,22.538,0,0,1-6.487-.9,12.654,12.654,0,0,1-5.215-3.012,14.475,14.475,0,0,1-3.477-5.586,25.083,25.083,0,0,1-1.271-8.566q0-.994.154-2.607a18.174,18.174,0,0,1,.713-3.477,18.924,18.924,0,0,1,1.615-3.756,12.534,12.534,0,0,1,2.825-3.421,14.224,14.224,0,0,1,4.343-2.483,17.693,17.693,0,0,1,6.176-.962,20.423,20.423,0,0,1,5.153.714,12.267,12.267,0,0,1,5.027,2.731,15.222,15.222,0,0,1,3.816,5.557,23.5,23.5,0,0,1,1.521,9.188v1.553H277.539a20.575,20.575,0,0,0,.311,2.3,8.009,8.009,0,0,0,1.022,2.671,6.388,6.388,0,0,0,2.3,2.2,8.092,8.092,0,0,0,4.129.9,7.078,7.078,0,0,0,3.445-.9,4.255,4.255,0,0,0,2.142-2.7ZM291.259,741.4a9.146,9.146,0,0,0-.87-3.323,7,7,0,0,0-1.615-2.142,5.6,5.6,0,0,0-2.048-1.147,7.382,7.382,0,0,0-2.174-.342,6.054,6.054,0,0,0-4.749,1.83,8.965,8.965,0,0,0-2.017,5.123Zm-30.731-13.225h5.4v6.208h-5.4v17.943a10.433,10.433,0,0,0,.062,1.241,1.263,1.263,0,0,0,.4.807,2.323,2.323,0,0,0,1.087.466,10.439,10.439,0,0,0,2.049.157q.434,0,.869-.032c.29-.02.6-.051.93-.092v6.58c-.7.042-1.386.072-2.048.095s-1.345.03-2.049.03h-1.117a16.009,16.009,0,0,1-4.532-.526,6.573,6.573,0,0,1-2.7-1.458,4.716,4.716,0,0,1-1.3-2.237,11.536,11.536,0,0,1-.341-2.917V734.377h-4.474v-6.208h4.474v-8.939h8.685Z" transform="translate(22.279 8.67)" fill="#06519c"/>
    <path id="Path_15" data-name="Path 15" d="M253.882,756.616q-.65-.52-1.263-1.082a5.868,5.868,0,0,0,.711,1.226,4.948,4.948,0,0,0,.553-.146m-1.663-7.22a13.335,13.335,0,0,0-.234,2.887,8.968,8.968,0,0,0,.412,2.663q.861.817,1.794,1.558a4.96,4.96,0,0,0,2.6-2.4,5.1,5.1,0,0,0,.316-.8,10.027,10.027,0,0,0-2.291-4.324A7.036,7.036,0,0,0,252.218,749.395Zm5.016,3.349a4.979,4.979,0,0,0-.684-3.494,6.548,6.548,0,0,0-1.333-.263,10.185,10.185,0,0,1,2.017,3.759Zm-5.245,1.805a9.7,9.7,0,0,1-.284-2.262,13.851,13.851,0,0,1,.207-2.775,8.533,8.533,0,0,0-1.62.885q-.362.25-.707.526a6.787,6.787,0,0,0,1.605,2.791q.389.428.8.837Zm-2.312-6.86a5.8,5.8,0,0,0-.284,1.68,5.615,5.615,0,0,0,.118,1.255c.2-.158.411-.311.621-.457a8.772,8.772,0,0,1,1.842-.984,6.389,6.389,0,0,1,.55-1.559,10.747,10.747,0,0,0-1.858-.419,4.938,4.938,0,0,0-.99.486Zm3.29-.732a4.973,4.973,0,0,0-1.661.07,10.293,10.293,0,0,1,1.363.35c.059-.1.122-.193.19-.284.032-.045.067-.088.105-.133Zm-.671,2.115a7.36,7.36,0,0,1,2.227-.384q-.132-.107-.255-.2a5.952,5.952,0,0,0-1.469-.768,5.846,5.846,0,0,0-.505,1.358Zm-.147,6.028q-.6-.578-1.169-1.194a7.1,7.1,0,0,1-1.634-2.786,7.95,7.95,0,0,0-1.261,1.325,4.117,4.117,0,0,0,4.932,4.37A6.579,6.579,0,0,1,252.149,755.1Zm-2.84-7.155a4.976,4.976,0,0,0-1.842,4.948,5.793,5.793,0,0,1,.395-.613,8.319,8.319,0,0,1,1.407-1.457,5.887,5.887,0,0,1-.122-1.995,5.746,5.746,0,0,1,.167-.882Zm3.974-.934a2.76,2.76,0,0,0-.207.249c-.051.07-.1.142-.146.215a6.215,6.215,0,0,1,1.494.789,4.542,4.542,0,0,1,.508.435,6.83,6.83,0,0,1,1.367.2,4.98,4.98,0,0,0-3.017-1.884Z" transform="translate(22.28 30.152)" fill="#06519c"/>
    <path id="Path_16" data-name="Path 16" d="M261.326,756.617c-.432-.346-.854-.709-1.262-1.082a5.867,5.867,0,0,0,.711,1.226,4.965,4.965,0,0,0,.553-.146m-1.663-7.221a13.222,13.222,0,0,0-.236,2.887,9.014,9.014,0,0,0,.412,2.662q.861.82,1.794,1.559a4.96,4.96,0,0,0,2.6-2.4,5.1,5.1,0,0,0,.316-.8,10.027,10.027,0,0,0-2.291-4.324,7.03,7.03,0,0,0-2.6.424Zm5.016,3.348a4.987,4.987,0,0,0-.686-3.491,6.425,6.425,0,0,0-1.334-.263,10.22,10.22,0,0,1,2.021,3.756Zm-5.245,1.808a9.63,9.63,0,0,1-.286-2.262,13.845,13.845,0,0,1,.207-2.775,8.463,8.463,0,0,0-1.617.886q-.365.25-.708.526a6.786,6.786,0,0,0,1.605,2.791c.258.284.525.565.8.836Zm-2.313-6.861a5.827,5.827,0,0,0-.284,1.682,5.62,5.62,0,0,0,.118,1.255q.3-.237.621-.457a8.784,8.784,0,0,1,1.842-.984,6.432,6.432,0,0,1,.55-1.561,10.722,10.722,0,0,0-1.858-.417,4.945,4.945,0,0,0-.99.476Zm3.29-.732a5.017,5.017,0,0,0-1.669.068,10,10,0,0,1,1.363.35,3.389,3.389,0,0,1,.19-.284c.039-.043.075-.09.113-.133Zm-.671,2.116a7.354,7.354,0,0,1,2.227-.383c-.083-.071-.168-.138-.255-.2a5.865,5.865,0,0,0-1.469-.767,5.842,5.842,0,0,0-.505,1.356ZM259.6,755.1q-.6-.578-1.169-1.193a7.122,7.122,0,0,1-1.633-2.786,7.948,7.948,0,0,0-1.261,1.325,5.082,5.082,0,0,0-.517.859,4.971,4.971,0,0,0,5.448,3.511,6.591,6.591,0,0,1-.871-1.715Zm-2.84-7.155a4.974,4.974,0,0,0-1.842,4.948,5.805,5.805,0,0,1,.395-.613,8.409,8.409,0,0,1,1.407-1.458,5.873,5.873,0,0,1-.122-1.992,6.2,6.2,0,0,1,.16-.882Zm3.974-.934a2.768,2.768,0,0,0-.205.249c-.051.07-.1.141-.146.215a6.226,6.226,0,0,1,1.494.789,4.7,4.7,0,0,1,.508.433,6.981,6.981,0,0,1,1.367.2,4.987,4.987,0,0,0-3.017-1.882Z" transform="translate(28.058 30.152)" fill="#47b541"/>
    <path id="Path_17" data-name="Path 17" d="M268.772,756.616q-.65-.52-1.262-1.082a5.867,5.867,0,0,0,.711,1.226,4.953,4.953,0,0,0,.553-.146m-1.662-7.22a13.234,13.234,0,0,0-.236,2.887,9.028,9.028,0,0,0,.412,2.664q.861.817,1.794,1.558a4.961,4.961,0,0,0,2.6-2.4,5.113,5.113,0,0,0,.316-.8,10.027,10.027,0,0,0-2.291-4.324,7.023,7.023,0,0,0-2.6.424Zm5.016,3.349a4.99,4.99,0,0,0-.686-3.494,6.551,6.551,0,0,0-1.332-.263,10.214,10.214,0,0,1,2.017,3.76Zm-5.245,1.805a9.623,9.623,0,0,1-.286-2.262,13.86,13.86,0,0,1,.207-2.775,8.547,8.547,0,0,0-1.62.886q-.362.25-.707.526a6.789,6.789,0,0,0,1.605,2.791c.258.286.525.565.8.837Zm-2.313-6.86a5.806,5.806,0,0,0-.284,1.68,5.614,5.614,0,0,0,.118,1.255c.2-.158.411-.311.621-.457a8.764,8.764,0,0,1,1.842-.984,6.385,6.385,0,0,1,.55-1.559,10.746,10.746,0,0,0-1.858-.418,4.943,4.943,0,0,0-.991.486Zm3.29-.732a4.972,4.972,0,0,0-1.661.07,10.31,10.31,0,0,1,1.363.35c.059-.1.122-.193.19-.284a1.527,1.527,0,0,1,.1-.133Zm-.671,2.115a7.36,7.36,0,0,1,2.227-.384q-.132-.107-.255-.2a5.952,5.952,0,0,0-1.469-.768,5.84,5.84,0,0,0-.509,1.358Zm-.141,6.026q-.6-.578-1.168-1.194a7.121,7.121,0,0,1-1.634-2.786,7.944,7.944,0,0,0-1.261,1.325,5.093,5.093,0,0,0-.517.859,4.972,4.972,0,0,0,5.451,3.511,6.541,6.541,0,0,1-.874-1.713Zm-2.84-7.155a4.974,4.974,0,0,0-1.842,4.948,5.769,5.769,0,0,1,.395-.613,8.33,8.33,0,0,1,1.407-1.457,5.888,5.888,0,0,1-.122-2,5.968,5.968,0,0,1,.159-.879Zm3.974-.934a2.758,2.758,0,0,0-.2.249c-.051.07-.1.142-.147.214a6.214,6.214,0,0,1,1.494.79,4.52,4.52,0,0,1,.508.436,6.834,6.834,0,0,1,1.367.2,4.978,4.978,0,0,0-3.017-1.884Z" transform="translate(33.835 30.152)" fill="#c22328"/>
  </g>
</svg>
