<svg xmlns="http://www.w3.org/2000/svg" xmlns:xlink="http://www.w3.org/1999/xlink" width="156.57" height="51.762" viewBox="0 0 156.57 51.762">
  <defs>
    <clipPath id="clip-path">
      <rect id="Retângulo_577" data-name="Retângulo 577" width="156.57" height="51.762" fill="none"/>
    </clipPath>
  </defs>
  <g id="Grupo_61" data-name="Grupo 61" clip-path="url(#clip-path)">
    <path id="Caminho_46" data-name="Caminho 46" d="M2.65,59.206A6.123,6.123,0,0,1,8.5,53.1,12.709,12.709,0,0,0,20.817,42.243c.128-.736.136-1.491.254-2.228a6.086,6.086,0,0,1,6.386-5.257,6.155,6.155,0,0,1,5.762,5.969,6.044,6.044,0,0,1-5.592,6.21,14.549,14.549,0,0,0-6.407,1.855,12.658,12.658,0,0,0-6.352,10.7,6.127,6.127,0,0,1-6.234,5.843A6.205,6.205,0,0,1,2.65,59.206" transform="translate(-1.139 -14.931)" fill="#ff4f28"/>
    <path id="Caminho_47" data-name="Caminho 47" d="M36.18,60.668A6.127,6.127,0,0,1,41.955,54.5c7.18-.44,12.091-5.3,12.563-12.423a6.118,6.118,0,1,1,6.462,6.271,13.07,13.07,0,0,0-12.627,12.7,6.023,6.023,0,0,1-6.37,5.668,6.2,6.2,0,0,1-5.8-6.04" transform="translate(-15.551 -15.539)" fill="#ff4f28"/>
    <path id="Caminho_48" data-name="Caminho 48" d="M1.386,25.757a6.144,6.144,0,0,1,6.107-6.1,12.426,12.426,0,0,0,11.522-8.8,17.345,17.345,0,0,0,.692-3.7,6.121,6.121,0,0,1,12.231.063A6.13,6.13,0,0,1,26.2,13.536c-7.485.668-12.032,5.269-12.637,12.791a6.1,6.1,0,0,1-12.178-.57" transform="translate(-0.595 -0.573)" fill="#ff4f28"/>
    <path id="Caminho_49" data-name="Caminho 49" d="M66.979,8.588A6.1,6.1,0,0,1,73.2,2.627a6.114,6.114,0,0,1-.185,12.226,6.1,6.1,0,0,1-6.036-6.265" transform="translate(-28.788 -1.128)" fill="#ff4f28"/>
    <path id="Caminho_50" data-name="Caminho 50" d="M12.235,6.185A6.118,6.118,0,1,1,0,5.975,6.181,6.181,0,0,1,6.357,0a6.113,6.113,0,0,1,5.877,6.183" transform="translate(0 0)" fill="#ff4f28"/>
    <path id="Caminho_51" data-name="Caminho 51" d="M82.017,75.529A6.107,6.107,0,0,1,69.8,75.467a6.107,6.107,0,1,1,12.214.062" transform="translate(-30.003 -29.808)" fill="#ff4f28"/>
    <path id="Caminho_52" data-name="Caminho 52" d="M102.019,28.307a10.312,10.312,0,0,1,1.931-6.559,6.2,6.2,0,0,1,5.124-2.452,5.8,5.8,0,0,1,4.742,2.1l.18-1.776h3.568V36.715a7.1,7.1,0,0,1-2.159,5.475,8.225,8.225,0,0,1-5.826,2,9.389,9.389,0,0,1-3.788-.807,6.734,6.734,0,0,1-2.811-2.11l1.874-2.379a5.658,5.658,0,0,0,4.5,2.167A4.373,4.373,0,0,0,112.463,40a4.09,4.09,0,0,0,1.141-3.137V35.672a5.831,5.831,0,0,1-4.563,1.907,6.182,6.182,0,0,1-5.059-2.461,10.643,10.643,0,0,1-1.964-6.811m3.943.342a7.1,7.1,0,0,0,1.083,4.179,3.484,3.484,0,0,0,3.007,1.524A3.81,3.81,0,0,0,113.6,32.3V24.543a3.756,3.756,0,0,0-3.52-2,3.5,3.5,0,0,0-3.039,1.548,7.948,7.948,0,0,0-1.083,4.563" transform="translate(-43.85 -8.294)"/>
    <path id="Caminho_53" data-name="Caminho 53" d="M135.112,28.275a10.4,10.4,0,0,1,1.026-4.669,7.5,7.5,0,0,1,2.884-3.194,8.127,8.127,0,0,1,4.269-1.116,7.7,7.7,0,0,1,5.792,2.3,9.036,9.036,0,0,1,2.4,6.094l.017.929a10.485,10.485,0,0,1-1,4.66,7.406,7.406,0,0,1-2.867,3.178,8.191,8.191,0,0,1-4.31,1.124,7.648,7.648,0,0,1-5.972-2.485,9.517,9.517,0,0,1-2.24-6.624Zm3.959.342a7.1,7.1,0,0,0,1.124,4.261,3.655,3.655,0,0,0,3.129,1.54,3.617,3.617,0,0,0,3.121-1.565,7.85,7.85,0,0,0,1.116-4.579,7.013,7.013,0,0,0-1.149-4.236,3.872,3.872,0,0,0-6.2-.025,7.7,7.7,0,0,0-1.14,4.6" transform="translate(-58.074 -8.294)"/>
    <rect id="Retângulo_575" data-name="Retângulo 575" width="3.959" height="25.028" transform="translate(97.03 3.93)"/>
    <path id="Caminho_54" data-name="Caminho 54" d="M183.38,22.976a10.481,10.481,0,0,1,1.89-6.542,6.056,6.056,0,0,1,5.067-2.469,5.754,5.754,0,0,1,4.53,1.956V6.894h3.959V31.922h-3.585l-.2-1.825a5.837,5.837,0,0,1-4.742,2.151,6.021,6.021,0,0,1-5.01-2.493,10.863,10.863,0,0,1-1.915-6.778m3.959.342a7.334,7.334,0,0,0,1.035,4.2,3.357,3.357,0,0,0,2.941,1.507,3.74,3.74,0,0,0,3.552-2.167V19.326a3.683,3.683,0,0,0-3.52-2.118,3.382,3.382,0,0,0-2.966,1.524,8.171,8.171,0,0,0-1.043,4.587" transform="translate(-78.821 -2.963)"/>
    <path id="Caminho_55" data-name="Caminho 55" d="M224.97,37.579a8.2,8.2,0,0,1-6.1-2.371,8.6,8.6,0,0,1-2.338-6.314V28.4a10.577,10.577,0,0,1,1.018-4.717,7.749,7.749,0,0,1,2.859-3.235,7.563,7.563,0,0,1,4.106-1.157,6.921,6.921,0,0,1,5.565,2.3,9.717,9.717,0,0,1,1.964,6.5v1.6h-11.52a5.294,5.294,0,0,0,1.459,3.454,4.377,4.377,0,0,0,3.218,1.271,5.361,5.361,0,0,0,4.432-2.2l2.135,2.037a7.132,7.132,0,0,1-2.827,2.452,8.851,8.851,0,0,1-3.967.872M224.5,22.474a3.334,3.334,0,0,0-2.631,1.14,5.914,5.914,0,0,0-1.279,3.178h7.545V26.5a4.816,4.816,0,0,0-1.059-3.007,3.31,3.31,0,0,0-2.574-1.018" transform="translate(-93.07 -8.294)"/>
    <path id="Caminho_56" data-name="Caminho 56" d="M252.753,19.622l.114,2.037A6.34,6.34,0,0,1,258,19.3q5.507,0,5.605,6.306v11.65h-3.96V25.83a3.63,3.63,0,0,0-.725-2.485,3.048,3.048,0,0,0-2.37-.807,3.815,3.815,0,0,0-3.569,2.167V37.253h-3.96V19.622Z" transform="translate(-107.035 -8.294)"/>
    <path id="Caminho_57" data-name="Caminho 57" d="M141.371,72.479a1.706,1.706,0,0,0-.715-1.431A5.528,5.528,0,0,0,138.5,70.2a9.736,9.736,0,0,1-2.236-.7,2.975,2.975,0,0,1-1.18-.965,2.41,2.41,0,0,1-.385-1.38,2.573,2.573,0,0,1,1.07-2.115,4.321,4.321,0,0,1,2.741-.835,4.45,4.45,0,0,1,2.906.9,2.873,2.873,0,0,1,1.1,2.335h-1.2a1.939,1.939,0,0,0-.8-1.581,3.59,3.59,0,0,0-3.9-.1,1.621,1.621,0,0,0-.715,1.366,1.477,1.477,0,0,0,.6,1.256,6.285,6.285,0,0,0,2.171.815,10.213,10.213,0,0,1,2.361.79,3.06,3.06,0,0,1,1.165,1.01,2.779,2.779,0,0,1-.725,3.621,4.724,4.724,0,0,1-2.886.82,4.85,4.85,0,0,1-3.066-.915,2.818,2.818,0,0,1-1.175-2.315h1.2a2.082,2.082,0,0,0,.885,1.635,3.618,3.618,0,0,0,2.155.585,3.4,3.4,0,0,0,2.021-.55,1.651,1.651,0,0,0,.77-1.391" transform="translate(-57.742 -27.598)"/>
    <path id="Caminho_58" data-name="Caminho 58" d="M152.339,69.657a6.369,6.369,0,0,1,.6-2.811,4.546,4.546,0,0,1,4.216-2.64,4.452,4.452,0,0,1,3.5,1.516A5.84,5.84,0,0,1,162,69.737v.25a6.422,6.422,0,0,1-.606,2.826,4.516,4.516,0,0,1-1.705,1.936,4.677,4.677,0,0,1-2.51.68,4.455,4.455,0,0,1-3.5-1.516,5.824,5.824,0,0,1-1.346-4.016Zm1.2.33a4.913,4.913,0,0,0,1.005,3.186,3.4,3.4,0,0,0,5.262,0,5.072,5.072,0,0,0,1.005-3.286v-.23a5.5,5.5,0,0,0-.46-2.27,3.692,3.692,0,0,0-1.29-1.6,3.3,3.3,0,0,0-1.9-.566,3.2,3.2,0,0,0-2.611,1.256,5.082,5.082,0,0,0-1.01,3.286Z" transform="translate(-65.479 -27.597)"/>
    <rect id="Retângulo_576" data-name="Retângulo 576" width="1.2" height="15.365" transform="translate(99.134 32.267)"/>
    <path id="Caminho_59" data-name="Caminho 59" d="M188.6,74.01a3.891,3.891,0,0,1-3.451,1.57,3.346,3.346,0,0,1-2.63-1.005,4.4,4.4,0,0,1-.92-2.976V64.557h1.19v6.892q0,3.091,2.5,3.091a3.065,3.065,0,0,0,3.291-2.151V64.557h1.2V75.38h-1.16Z" transform="translate(-78.057 -27.748)"/>
    <path id="Caminho_60" data-name="Caminho 60" d="M202.266,59.7v2.77h2.241v.981h-2.241v7.22a2.259,2.259,0,0,0,.325,1.342,1.26,1.26,0,0,0,1.085.441,7.463,7.463,0,0,0,.97-.1l.05.972a3.915,3.915,0,0,1-1.281.168,2.135,2.135,0,0,1-1.79-.715,3.366,3.366,0,0,1-.56-2.106V63.449h-1.99v-.981h1.99V59.7Z" transform="translate(-85.567 -25.66)"/>
    <path id="Caminho_61" data-name="Caminho 61" d="M212.828,58.467a.8.8,0,0,1,.22-.571.785.785,0,0,1,.6-.234.8.8,0,0,1,.6.234.793.793,0,0,1,.225.571.776.776,0,0,1-.225.567.809.809,0,0,1-.6.229.77.77,0,0,1-.82-.8m1.411,13.949h-1.2V61.593h1.2Z" transform="translate(-91.478 -24.785)"/>
    <path id="Caminho_62" data-name="Caminho 62" d="M219.846,69.657a6.369,6.369,0,0,1,.6-2.811,4.546,4.546,0,0,1,4.216-2.64,4.452,4.452,0,0,1,3.5,1.516,5.84,5.84,0,0,1,1.34,4.016v.25a6.423,6.423,0,0,1-.605,2.826,4.517,4.517,0,0,1-1.705,1.936,4.677,4.677,0,0,1-2.51.68,4.455,4.455,0,0,1-3.5-1.516,5.824,5.824,0,0,1-1.346-4.016Zm1.2.33a4.913,4.913,0,0,0,1.005,3.186,3.4,3.4,0,0,0,5.262,0,5.072,5.072,0,0,0,1.005-3.286v-.23a5.5,5.5,0,0,0-.46-2.27,3.692,3.692,0,0,0-1.29-1.6,3.3,3.3,0,0,0-1.9-.566,3.2,3.2,0,0,0-2.611,1.256,5.082,5.082,0,0,0-1.01,3.286Z" transform="translate(-94.495 -27.597)"/>
    <path id="Caminho_63" data-name="Caminho 63" d="M242.266,64.406l.04,1.851a4.292,4.292,0,0,1,1.521-1.526,3.95,3.95,0,0,1,2.01-.525,3.247,3.247,0,0,1,2.591.98,4.424,4.424,0,0,1,.86,2.941v7.1H248.1V68.117a3.311,3.311,0,0,0-.615-2.161,2.412,2.412,0,0,0-1.936-.71,3.026,3.026,0,0,0-1.965.7,4.07,4.07,0,0,0-1.265,1.875v7.412h-1.191V64.406Z" transform="translate(-103.642 -27.597)"/>
    <path id="Caminho_64" data-name="Caminho 64" d="M266.929,72.479a1.706,1.706,0,0,0-.715-1.431,5.528,5.528,0,0,0-2.156-.845,9.735,9.735,0,0,1-2.236-.7,2.974,2.974,0,0,1-1.18-.965,2.41,2.41,0,0,1-.385-1.38,2.573,2.573,0,0,1,1.07-2.115,4.321,4.321,0,0,1,2.741-.835,4.45,4.45,0,0,1,2.906.9,2.873,2.873,0,0,1,1.1,2.335h-1.2a1.939,1.939,0,0,0-.8-1.581,3.59,3.59,0,0,0-3.9-.1,1.621,1.621,0,0,0-.715,1.366,1.477,1.477,0,0,0,.6,1.256,6.284,6.284,0,0,0,2.171.815,10.214,10.214,0,0,1,2.361.79,3.06,3.06,0,0,1,1.165,1.01,2.779,2.779,0,0,1-.725,3.621,4.723,4.723,0,0,1-2.886.82,4.848,4.848,0,0,1-3.066-.915A2.817,2.817,0,0,1,259.9,72.2h1.2a2.08,2.08,0,0,0,.885,1.635,3.619,3.619,0,0,0,2.156.585,3.4,3.4,0,0,0,2.02-.55,1.65,1.65,0,0,0,.77-1.391" transform="translate(-111.71 -27.598)"/>
  </g>
</svg>
