<svg xmlns="http://www.w3.org/2000/svg" width="173.677" height="78.999" viewBox="0 0 173.677 78.999">
  <g id="Grupo_27" data-name="Grupo 27" transform="translate(-1032 -108)">
    <g id="logo-solo-branca" transform="translate(1032 108)">
      <path id="Caminho_30" data-name="Caminho 30" d="M.741,25.1c-.121,0-.241,0-.241.121v6.392a.259.259,0,0,0,.241.241L45.97,46.93c.121,0,.241,0,.241-.121V43.191a4.349,4.349,0,0,0-.724-2.412,3.6,3.6,0,0,0-2.05-1.447Z" transform="translate(-0.5 -6.888)" fill="#d32225"/>
      <path id="Caminho_31" data-name="Caminho 31" d="M.741,34.6c-.121,0-.241,0-.241.121v3.618a4.349,4.349,0,0,0,.724,2.412A3.6,3.6,0,0,0,3.274,42.2L45.97,56.43c.121,0,.241,0,.241-.121V49.917a.259.259,0,0,0-.241-.241Z" transform="translate(-0.5 -4.93)" fill="#d32225"/>
      <path id="Caminho_32" data-name="Caminho 32" d="M23.3,24.594a.259.259,0,0,0-.241-.241L11.717,20.493l11.337-3.739a.259.259,0,0,0,.241-.241V10.121c0-.121-.121-.121-.241-.121L3.274,16.513a4.935,4.935,0,0,0-2.05,1.568A4.349,4.349,0,0,0,.5,20.493v3.015a.259.259,0,0,0,.241.241l22.433,7.478c.121,0,.241,0,.241-.121V24.594H23.3Z" transform="translate(-0.5 -10)" fill="#d32225"/>
      <path id="Caminho_33" data-name="Caminho 33" d="M19.641,50.3c-.121,0-.241,0-.241.121v6.392a.259.259,0,0,0,.241.241l11.337,3.739L19.641,64.652a.259.259,0,0,0-.241.241v6.392c0,.121.121.121.241.121l19.78-6.634a4.6,4.6,0,0,0,2.05-1.447,4.349,4.349,0,0,0,.724-2.412V57.9a.259.259,0,0,0-.241-.241Z" transform="translate(3.395 -1.694)" fill="#d32225"/>
      <g id="Grupo_21" data-name="Grupo 21" transform="translate(97.693 29.187)">
        <path id="Caminho_34" data-name="Caminho 34" d="M109,55.307c0,8.322-5.427,12.543-13.749,12.543S81.5,63.629,81.5,55.307V46.743c0-8.322,5.427-12.543,13.749-12.543s13.629,4.221,13.629,12.543L109,55.307Zm-7-9.046c0-4.1-2.653-6.03-6.754-6.03S88.5,42.16,88.5,46.261v9.528c0,4.1,2.653,6.03,6.754,6.03S102,59.89,102,55.789Z" transform="translate(-81.5 -34.2)" fill="#3c3c3b"/>
      </g>
      <g id="Grupo_22" data-name="Grupo 22" transform="translate(146.178 29.187)">
        <path id="Caminho_35" data-name="Caminho 35" d="M149.2,55.307c0,8.322-5.427,12.543-13.749,12.543S121.7,63.629,121.7,55.307V46.743c0-8.322,5.427-12.543,13.749-12.543s13.629,4.221,13.629,12.543l.121,8.563Zm-7-9.046c0-4.1-2.653-6.03-6.754-6.03s-6.754,1.93-6.754,6.03v9.528c0,4.1,2.653,6.03,6.754,6.03s6.754-1.93,6.754-6.03Z" transform="translate(-121.7 -34.2)" fill="#3c3c3b"/>
      </g>
      <path id="Caminho_36" data-name="Caminho 36" d="M73.229,48.919l-6.392-1.568c-2.774-.724-3.859-1.93-3.739-3.739.121-2.533,2.171-3.739,6.272-3.5l9.649.362a.259.259,0,0,0,.241-.241l.241-5.307a.259.259,0,0,0-.241-.241l-9.649-.482c-8.443-.362-13.267,2.533-13.508,9.046-.241,5.066,3.256,8.322,8.8,9.649l6.272,1.568c2.774.6,3.98,1.93,3.859,3.739-.121,2.653-2.653,3.859-6.754,3.618L59,61.463a.259.259,0,0,0-.241.241l-.241,5.307a.259.259,0,0,0,.241.241l9.287.482c8.443.362,13.629-2.533,13.991-9.287C82.154,53.5,78.777,50.246,73.229,48.919Z" transform="translate(10.957 -5.018)" fill="#3c3c3b"/>
      <g id="Grupo_23" data-name="Grupo 23" transform="translate(132.067 21.348)">
        <path id="Caminho_37" data-name="Caminho 37" d="M117.116,68.948a.259.259,0,0,1-.241.241h-6.633a.259.259,0,0,1-.241-.241V31.2a4.148,4.148,0,0,1,.965-2.533A3.356,3.356,0,0,1,113.5,27.7h3.377a.259.259,0,0,1,.241.241Z" transform="translate(-110 -27.7)" fill="#3c3c3b"/>
      </g>
      <path id="Caminho_38" data-name="Caminho 38" d="M103.289,76.722h0l-1.085.121a.118.118,0,0,1-.121-.121l-3.377-5.91V76.6c0,.121,0,.121-.121.121h-.965c-.121,0-.121,0-.121-.121V68.521c0-.121,0-.121.121-.121h.965a.118.118,0,0,1,.121.121l3.377,5.91V68.641c0-.121,0-.121.121-.121h.965c.121,0,.121,0,.121.121Z" transform="translate(19.491 2.036)" fill="#3c3c3b"/>
      <path id="Caminho_39" data-name="Caminho 39" d="M109.527,76.7h0l-5.307.121c-.121,0-.121,0-.121-.121V68.621c0-.121,0-.121.121-.121h5.186c.121,0,.121,0,.121.121v.965c0,.121,0,.121-.121.121h-4.1V72h3.618c.121,0,.121,0,.121.121v.965c0,.121,0,.121-.121.121h-3.618V75.5h4.1c.121,0,.121,0,.121.121Z" transform="translate(20.851 2.056)" fill="#3c3c3b"/>
      <path id="Caminho_40" data-name="Caminho 40" d="M115.589,69.585h0l-2.292.121v7c0,.121,0,.121-.121.121h-.965c-.121,0-.121,0-.121-.121v-7h-2.171c-.121,0-.121,0-.121-.121v-.965c0-.121,0-.121.121-.121h5.548c.121,0,.121,0,.121.121Z" transform="translate(22.026 2.056)" fill="#3c3c3b"/>
      <path id="Caminho_41" data-name="Caminho 41" d="M122.957,76.822c0,.121-.121.121,0,0l-1.085.121c-.121,0-.121,0-.121-.121l-1.447-5.91-1.447,5.91a.118.118,0,0,1-.121.121h-.965c-.121,0-.121,0-.121-.121l-2.05-8.081c0-.121,0-.241.121-.241h.965c.121,0,.121,0,.121.121l1.447,5.789,1.447-5.789a.118.118,0,0,1,.121-.121h.965c.121,0,.121,0,.121.121l1.447,5.789,1.447-5.789a.118.118,0,0,1,.121-.121h.965c.121,0,.241,0,.121.241Z" transform="translate(23.221 2.056)" fill="#3c3c3b"/>
      <path id="Caminho_42" data-name="Caminho 42" d="M130.51,74.41a2.473,2.473,0,0,1-2.533,2.533h-.844A2.473,2.473,0,0,1,124.6,74.41V71.033a2.473,2.473,0,0,1,2.533-2.533h.844a2.473,2.473,0,0,1,2.533,2.533ZM129.3,71.033a1.237,1.237,0,0,0-1.206-1.206h-.844a1.237,1.237,0,0,0-1.206,1.206V74.41a1.1,1.1,0,0,0,.362.844,1.3,1.3,0,0,0,.844.362h.844a1.1,1.1,0,0,0,.844-.362,1.3,1.3,0,0,0,.362-.844Z" transform="translate(25.076 2.056)" fill="#3c3c3b"/>
      <path id="Caminho_43" data-name="Caminho 43" d="M137.21,76.7c0,.121,0,.241-.121.241H136c-.121,0-.121,0-.121-.121l-1.447-3.5h-1.93V76.7c0,.121,0,.121-.121.121h-.965c-.121,0-.121,0-.121-.121V68.621c0-.121,0-.121.121-.121h3.618a2,2,0,0,1,1.447.6,2.225,2.225,0,0,1,.6,1.447v.6a1.955,1.955,0,0,1-1.447,1.93Zm-1.327-6.151a.824.824,0,0,0-.844-.844h-2.533V72h2.533a.824.824,0,0,0,.844-.844Z" transform="translate(26.457 2.056)" fill="#3c3c3b"/>
      <path id="Caminho_44" data-name="Caminho 44" d="M144.051,76.7h0l-.121.241h-1.085a.118.118,0,0,1-.121-.121L140.192,72.6l-.965.965V76.7c0,.121,0,.121-.121.121h-1.085c-.121,0-.121,0-.121-.121V68.621c0-.121,0-.121.121-.121h.965c.121,0,.121,0,.121.121v3.136l3.256-3.256h1.447c.121,0,.121,0,.121.121v.121l-2.895,2.895Z" transform="translate(27.817 2.056)" fill="#3c3c3b"/>
    </g>
  </g>
</svg>
